<svg width="67" height="51" viewBox="0 0 67 51" fill="none" xmlns="http://www.w3.org/2000/svg">
<path d="M6.28125 0C2.81348 0 0 2.81348 0 6.28125C0 8.25723 0.929102 10.1154 2.5125 11.3062L30.9875 32.6625C32.4793 33.7748 34.5207 33.7748 36.0125 32.6625L64.4875 11.3062C66.0709 10.1154 67 8.25723 67 6.28125C67 2.81348 64.1865 0 60.7188 0H6.28125ZM0 14.6562V41.875C0 46.4943 3.75566 50.25 8.375 50.25H58.625C63.2443 50.25 67 46.4943 67 41.875V14.6562L38.525 36.0125C35.5414 38.2502 31.4586 38.2502 28.475 36.0125L0 14.6562Z" fill="#EB6D08"/>
</svg>
