<svg width="56" height="56" viewBox="0 0 56 56" fill="none" xmlns="http://www.w3.org/2000/svg">
<path d="M24.8569 0.199912C11.9508 1.64404 1.56973 12.3306 0.166887 25.3278C-1.23596 38.9026 6.33939 51.0333 17.8427 55.6545C18.6844 55.9433 19.5261 55.3657 19.5261 54.2104V49.5892C19.5261 49.5892 18.4038 49.878 17.001 49.878C13.073 49.878 11.3896 46.4121 11.1091 44.3903C10.8285 43.235 10.2674 42.3685 9.42564 41.502C8.58394 41.2132 8.30337 41.2132 8.30337 40.9244C8.30337 40.3467 9.14508 40.3467 9.42564 40.3467C11.1091 40.3467 12.5119 42.3685 13.073 43.235C14.4759 45.5456 16.1593 46.1233 17.001 46.1233C18.1233 46.1233 18.965 45.8344 19.5261 45.5456C19.8067 43.5238 20.6484 41.502 22.3318 40.3467C15.8787 38.9026 11.1091 35.1479 11.1091 28.7937C11.1091 25.6166 12.5119 22.4395 14.4759 20.1289C14.1953 19.5513 13.9147 18.1071 13.9147 16.0853C13.9147 14.93 13.9147 13.1971 14.7564 11.4641C14.7564 11.4641 18.6844 11.4641 22.6124 15.2189C24.0152 14.6412 25.9792 14.3524 27.9432 14.3524C29.9071 14.3524 31.8711 14.6412 33.5545 15.2189C37.2019 11.4641 41.4104 11.4641 41.4104 11.4641C41.9716 13.1971 41.9716 14.93 41.9716 16.0853C41.9716 18.396 41.691 19.5513 41.4104 20.1289C43.3744 22.4395 44.7773 25.3278 44.7773 28.7937C44.7773 35.1479 40.0076 38.9026 33.5545 40.3467C35.2379 41.7909 36.3602 44.3903 36.3602 46.9897V54.4992C36.3602 55.3657 37.2019 56.2322 38.3242 55.9433C48.7052 51.611 56 41.2132 56 29.0825C56 11.753 41.691 -1.82187 24.8569 0.199912Z" fill="#EB6D08"/>
</svg>
