<svg width="56" height="50" viewBox="0 0 56 50" fill="none" xmlns="http://www.w3.org/2000/svg">
<path d="M24.8569 0.178348C11.9508 1.4667 1.56973 11.0005 0.166887 22.5957C-1.23596 34.7063 6.33939 45.5285 17.8427 49.6512C18.6844 49.9089 19.5261 49.3935 19.5261 48.3629V44.2401C19.5261 44.2401 18.4038 44.4978 17.001 44.4978C13.073 44.4978 11.3896 41.4057 11.1091 39.602C10.8285 38.5713 10.2674 37.7983 9.42564 37.0253C8.58394 36.7677 8.30337 36.7677 8.30337 36.51C8.30337 35.9946 9.14508 35.9946 9.42564 35.9946C11.1091 35.9946 12.5119 37.7983 13.073 38.5714C14.4759 40.6327 16.1593 41.1481 17.001 41.1481C18.1233 41.1481 18.965 40.8904 19.5261 40.6327C19.8067 38.829 20.6484 37.0253 22.3318 35.9946C15.8787 34.7063 11.1091 31.3566 11.1091 25.6878C11.1091 22.8534 12.5119 20.019 14.4759 17.9577C14.1953 17.4423 13.9147 16.154 13.9147 14.3503C13.9147 13.3196 13.9147 11.7735 14.7564 10.2275C14.7564 10.2275 18.6844 10.2275 22.6124 13.5772C24.0152 13.0619 25.9792 12.8042 27.9432 12.8042C29.9071 12.8042 31.8711 13.0619 33.5545 13.5772C37.2019 10.2275 41.4104 10.2275 41.4104 10.2275C41.9716 11.7735 41.9716 13.3196 41.9716 14.3503C41.9716 16.4116 41.691 17.4423 41.4104 17.9577C43.3744 20.019 44.7773 22.5957 44.7773 25.6878C44.7773 31.3566 40.0076 34.7063 33.5545 35.9946C35.2379 37.283 36.3602 39.602 36.3602 41.9211V48.6205C36.3602 49.3935 37.2019 50.1665 38.3242 49.9089C48.7052 46.0438 56 36.7677 56 25.9455C56 10.4852 41.691 -1.62535 24.8569 0.178348Z" fill="#B0B0B0"/>
</svg>
