<svg width="56" height="56" viewBox="0 0 56 56" fill="none" xmlns="http://www.w3.org/2000/svg">
<path d="M49.3333 0H6.66667C2.98667 0 0 2.98667 0 6.66667V49.3333C0 53.0133 2.98667 56 6.66667 56H49.3333C53.0133 56 56 53.0133 56 49.3333V6.66667C56 2.98667 53.0133 0 49.3333 0ZM17.3333 21.3333V46.6667H9.33333V21.3333H17.3333ZM9.33333 13.96C9.33333 12.0933 10.9333 10.6667 13.3333 10.6667C15.7333 10.6667 17.24 12.0933 17.3333 13.96C17.3333 15.8267 15.84 17.3333 13.3333 17.3333C10.9333 17.3333 9.33333 15.8267 9.33333 13.96ZM46.6667 46.6667H38.6667C38.6667 46.6667 38.6667 34.32 38.6667 33.3333C38.6667 30.6667 37.3333 28 34 27.9467H33.8933C30.6667 27.9467 29.3333 30.6933 29.3333 33.3333C29.3333 34.5467 29.3333 46.6667 29.3333 46.6667H21.3333V21.3333H29.3333V24.7467C29.3333 24.7467 31.9067 21.3333 37.08 21.3333C42.3733 21.3333 46.6667 24.9733 46.6667 32.3467V46.6667Z" fill="#EB6D08"/>
</svg>
