<svg width="234" height="95" viewBox="0 0 234 95" fill="none" xmlns="http://www.w3.org/2000/svg">
<path d="M98.683 41.7296C97.4257 41.7296 96.268 41.5302 95.21 41.1316C94.1673 40.7176 93.255 40.1426 92.473 39.4066C91.691 38.6552 91.0853 37.7736 90.656 36.7616C90.2267 35.7496 90.012 34.6456 90.012 33.4496C90.012 32.2536 90.2267 31.1496 90.656 30.1376C91.0853 29.1256 91.691 28.2516 92.473 27.5156C93.2703 26.7642 94.198 26.1892 95.256 25.7906C96.314 25.3766 97.4717 25.1696 98.729 25.1696C100.094 25.1696 101.32 25.3919 102.409 25.8366C103.513 26.2812 104.441 26.9329 105.192 27.7916L103.306 29.6316C102.677 29.0029 101.995 28.5429 101.259 28.2516C100.538 27.9449 99.741 27.7916 98.867 27.7916C98.0237 27.7916 97.2417 27.9296 96.521 28.2056C95.8003 28.4816 95.1793 28.8726 94.658 29.3786C94.1367 29.8846 93.7303 30.4826 93.439 31.1726C93.163 31.8626 93.025 32.6216 93.025 33.4496C93.025 34.2622 93.163 35.0136 93.439 35.7036C93.7303 36.3936 94.1367 36.9992 94.658 37.5206C95.1793 38.0266 95.7927 38.4176 96.498 38.6936C97.2033 38.9696 97.9853 39.1076 98.844 39.1076C99.6413 39.1076 100.408 38.9849 101.144 38.7396C101.895 38.4789 102.608 38.0496 103.283 37.4516L104.985 39.6826C104.142 40.3572 103.16 40.8709 102.041 41.2236C100.937 41.5609 99.8177 41.7296 98.683 41.7296ZM102.156 39.2916V33.2656H104.985V39.6826L102.156 39.2916ZM106.652 41.4996L113.897 25.3996H116.841L124.109 41.4996H120.981L114.748 26.9866H115.944L109.734 41.4996H106.652ZM109.987 37.7736L110.792 35.4276H119.486L120.291 37.7736H109.987ZM126.156 41.4996V25.3996H133.7C135.632 25.3996 137.104 25.7829 138.116 26.5496C139.128 27.3009 139.634 28.3129 139.634 29.5856C139.634 30.4442 139.435 31.1802 139.036 31.7936C138.637 32.3916 138.101 32.8592 137.426 33.1966C136.767 33.5186 136.046 33.6796 135.264 33.6796L135.678 32.8516C136.583 32.8516 137.395 33.0202 138.116 33.3576C138.837 33.6796 139.404 34.1549 139.818 34.7836C140.247 35.4122 140.462 36.1942 140.462 37.1296C140.462 38.5096 139.933 39.5829 138.875 40.3496C137.817 41.1162 136.245 41.4996 134.16 41.4996H126.156ZM129.146 39.1536H133.976C135.095 39.1536 135.954 38.9696 136.552 38.6016C137.15 38.2336 137.449 37.6432 137.449 36.8306C137.449 36.0332 137.15 35.4506 136.552 35.0826C135.954 34.6992 135.095 34.5076 133.976 34.5076H128.916V32.1846H133.378C134.421 32.1846 135.218 32.0006 135.77 31.6326C136.337 31.2646 136.621 30.7126 136.621 29.9766C136.621 29.2252 136.337 28.6656 135.77 28.2976C135.218 27.9296 134.421 27.7456 133.378 27.7456H129.146V39.1536ZM143.653 41.4996V25.3996H150.277C151.703 25.3996 152.922 25.6296 153.934 26.0896C154.962 26.5496 155.751 27.2089 156.303 28.0676C156.855 28.9262 157.131 29.9459 157.131 31.1266C157.131 32.3072 156.855 33.3269 156.303 34.1856C155.751 35.0289 154.962 35.6806 153.934 36.1406C152.922 36.5852 151.703 36.8076 150.277 36.8076H145.309L146.643 35.4506V41.4996H143.653ZM154.187 41.4996L150.116 35.6576H153.313L157.407 41.4996H154.187ZM146.643 35.7726L145.309 34.3466H150.139C151.458 34.3466 152.447 34.0629 153.106 33.4956C153.781 32.9282 154.118 32.1386 154.118 31.1266C154.118 30.0992 153.781 29.3096 153.106 28.7576C152.447 28.2056 151.458 27.9296 150.139 27.9296H145.309L146.643 26.4576V35.7726ZM160.476 41.4996V25.3996H163.466V41.4996H160.476ZM170.581 32.0926H178.585V34.5536H170.581V32.0926ZM170.811 38.9926H179.896V41.4996H167.821V25.3996H179.574V27.9066H170.811V38.9926ZM183.229 41.4996V25.3996H186.219V38.9696H194.637V41.4996H183.229ZM102.478 53.3996H105.468V69.4996H102.478V53.3996ZM94.152 69.4996H91.162V53.3996H94.152V69.4996ZM102.708 62.5996H93.899V60.0466H102.708V62.5996ZM112.542 60.0926H120.546V62.5536H112.542V60.0926ZM112.772 66.9926H121.857V69.4996H109.782V53.3996H121.535V55.9066H112.772V66.9926ZM125.19 69.4996V53.3996H127.651L137.748 65.7966H136.529V53.3996H139.496V69.4996H137.035L126.938 57.1026H128.157V69.4996H125.19ZM143.81 69.4996V53.3996H150.434C151.86 53.3996 153.079 53.6296 154.091 54.0896C155.119 54.5496 155.908 55.2089 156.46 56.0676C157.012 56.9262 157.288 57.9459 157.288 59.1266C157.288 60.3072 157.012 61.3269 156.46 62.1856C155.908 63.0289 155.119 63.6806 154.091 64.1406C153.079 64.5852 151.86 64.8076 150.434 64.8076H145.466L146.8 63.4506V69.4996H143.81ZM154.344 69.4996L150.273 63.6576H153.47L157.564 69.4996H154.344ZM146.8 63.7726L145.466 62.3466H150.296C151.615 62.3466 152.604 62.0629 153.263 61.4956C153.938 60.9282 154.275 60.1386 154.275 59.1266C154.275 58.0992 153.938 57.3096 153.263 56.7576C152.604 56.2056 151.615 55.9296 150.296 55.9296H145.466L146.8 54.4576V63.7726ZM160.634 69.4996V53.3996H163.624V69.4996H160.634ZM175.522 69.7296C174.265 69.7296 173.107 69.5226 172.049 69.1086C170.991 68.6946 170.071 68.1196 169.289 67.3836C168.507 66.6322 167.902 65.7582 167.472 64.7616C167.043 63.7496 166.828 62.6456 166.828 61.4496C166.828 60.2536 167.043 59.1572 167.472 58.1606C167.902 57.1486 168.507 56.2746 169.289 55.5386C170.071 54.7872 170.991 54.2046 172.049 53.7906C173.107 53.3766 174.257 53.1696 175.499 53.1696C176.757 53.1696 177.907 53.3766 178.949 53.7906C180.007 54.2046 180.927 54.7796 181.709 55.5156C182.491 56.2516 183.097 57.1256 183.526 58.1376C183.956 59.1496 184.17 60.2536 184.17 61.4496C184.17 62.6456 183.956 63.7496 183.526 64.7616C183.097 65.7736 182.491 66.6476 181.709 67.3836C180.927 68.1196 180.007 68.6946 178.949 69.1086C177.907 69.5226 176.764 69.7296 175.522 69.7296ZM180.766 73.0186C180.199 73.0186 179.647 72.9496 179.11 72.8116C178.589 72.6889 178.068 72.4742 177.546 72.1676C177.04 71.8762 176.511 71.4852 175.959 70.9946C175.407 70.5192 174.802 69.9289 174.142 69.2236L177.316 68.3956C177.746 68.9629 178.152 69.4152 178.535 69.7526C178.934 70.1052 179.317 70.3582 179.685 70.5116C180.053 70.6649 180.437 70.7416 180.835 70.7416C181.893 70.7416 182.813 70.3122 183.595 69.4536L184.975 71.1096C183.902 72.3822 182.499 73.0186 180.766 73.0186ZM175.499 67.1076C176.312 67.1076 177.063 66.9696 177.753 66.6936C178.443 66.4176 179.041 66.0266 179.547 65.5206C180.053 64.9992 180.444 64.3936 180.72 63.7036C181.012 63.0136 181.157 62.2622 181.157 61.4496C181.157 60.6216 181.012 59.8702 180.72 59.1956C180.444 58.5056 180.053 57.9076 179.547 57.4016C179.041 56.8802 178.443 56.4816 177.753 56.2056C177.063 55.9296 176.312 55.7916 175.499 55.7916C174.687 55.7916 173.935 55.9296 173.245 56.2056C172.555 56.4816 171.957 56.8802 171.451 57.4016C170.945 57.9076 170.547 58.5056 170.255 59.1956C169.979 59.8702 169.841 60.6216 169.841 61.4496C169.841 62.2622 169.979 63.0136 170.255 63.7036C170.547 64.3936 170.945 64.9992 171.451 65.5206C171.957 66.0266 172.555 66.4176 173.245 66.6936C173.935 66.9696 174.687 67.1076 175.499 67.1076ZM194.263 69.7296C192.055 69.7296 190.322 69.1086 189.065 67.8666C187.823 66.6246 187.202 64.8306 187.202 62.4846V53.3996H190.192V62.3696C190.192 64.0256 190.544 65.2292 191.25 65.9806C191.97 66.7319 192.982 67.1076 194.286 67.1076C195.589 67.1076 196.593 66.7319 197.299 65.9806C198.004 65.2292 198.357 64.0256 198.357 62.3696V53.3996H201.301V62.4846C201.301 64.8306 200.672 66.6246 199.415 67.8666C198.173 69.1086 196.455 69.7296 194.263 69.7296ZM208.248 60.0926H216.252V62.5536H208.248V60.0926ZM208.478 66.9926H217.563V69.4996H205.488V53.3996H217.241V55.9066H208.478V66.9926Z" fill="white"/>
<mask id="mask0_43_2" style="mask-type:luminance" maskUnits="userSpaceOnUse" x="0" y="0" width="27" height="81">
<path d="M0 0H26.9294V80.2956H0V0Z" fill="white"/>
</mask>
<g mask="url(#mask0_43_2)">
<path d="M0.0241699 44.6393V34.7293C1.91888 34.6204 3.35079 34.3145 4.31199 33.82C5.27319 33.3256 6.10386 32.4917 6.80399 31.3226C7.50808 30.1535 7.9867 28.6869 8.24777 26.9228C8.45345 25.6029 8.56026 23.3024 8.56026 20.0298C8.56026 14.6872 8.79363 10.9663 9.26039 8.85857C9.7311 6.75505 10.5736 5.06218 11.7959 3.77995C13.0142 2.50192 14.7942 1.48787 17.1359 0.746195C18.7181 0.251742 21.2141 0.0045166 24.6198 0.0045166H26.6846V9.87261C23.801 9.87261 21.9498 10.0444 21.131 10.388C20.3122 10.7316 19.707 11.2554 19.3194 11.9552C18.9278 12.6591 18.7339 13.8618 18.7339 15.5672C18.7339 17.302 18.6153 20.5913 18.3819 25.4395C18.2514 28.1632 17.9151 30.3714 17.3693 32.0643C16.8234 33.7572 16.1272 35.1567 15.2847 36.2546C14.4382 37.3566 13.1447 38.5006 11.4043 39.6822C12.9391 40.6209 14.193 41.7145 15.166 42.9674C16.1431 44.2203 16.8867 45.7372 17.4088 47.5306C17.927 49.3157 18.2632 51.7125 18.4214 54.7127C18.6034 59.2843 18.6944 62.2008 18.6944 63.4662C18.6944 65.2848 18.9001 66.5503 19.3194 67.2668C19.7347 67.9792 20.3636 68.5239 21.2062 68.8968C22.0526 69.2698 23.8762 69.4541 26.6846 69.4541V79.3641H24.6198C21.1112 79.3641 18.4214 79.0666 16.5505 78.4758C14.6795 77.885 13.1012 76.9003 11.8157 75.5217C10.5262 74.1472 9.66385 72.446 9.22083 70.4221C8.78177 68.4024 8.56026 65.2136 8.56026 60.8641C8.56026 55.8022 8.35061 52.5087 7.93528 50.996C7.36568 48.7961 6.49941 47.2205 5.34439 46.2693C4.18541 45.3181 2.41332 44.7776 0.0241699 44.6393Z" fill="#FBFCFF"/>
</g>
<path d="M59.1552 20.5619H53.0558V14.0962H59.1552V20.5619Z" fill="#FF4500"/>
<path d="M57.7154 33.4854H53.0558V28.5492H57.7154V33.4854Z" fill="#FF4500"/>
<mask id="mask1_43_2" style="mask-type:luminance" maskUnits="userSpaceOnUse" x="29" y="14" width="29" height="81">
<path d="M29.9673 14.859H57.3081V94.9355H29.9673V14.859Z" fill="white"/>
</mask>
<g mask="url(#mask1_43_2)">
<path d="M39.967 25.5747V20.6385H44.6306V25.5747H39.967ZM51.8257 48.6589C50.6549 47.7119 49.7847 46.1364 49.2151 43.9323C48.8986 42.6919 48.7127 40.3077 48.6494 36.792H44.6306V30.3306H48.5624C48.4635 27.8374 48.2578 25.8973 47.9453 24.5062C47.4905 22.4823 46.6281 20.7768 45.3545 19.3856C44.0808 17.9945 42.5104 17.0098 40.6394 16.4315C38.7685 15.8532 36.0787 15.5683 32.5701 15.5683H30.5053V25.4364C33.4403 25.4364 35.3311 25.6208 36.1736 25.9937C37.0201 26.3624 37.6055 26.8946 37.9299 27.5818C38.2542 28.269 38.4283 29.6476 38.456 31.7092C38.5865 38.2628 38.7922 42.4992 39.081 44.4267C39.52 47.2384 40.3507 49.5472 41.5729 51.3658C42.455 52.6313 43.8593 53.9261 45.7856 55.246C44.3023 56.1553 43.0879 57.2071 42.1386 58.4055C41.1893 59.6039 40.4298 61.0621 39.8602 62.7801C39.2866 64.5023 38.9346 66.7944 38.808 69.6564C38.5984 74.3914 38.4876 77.5969 38.4758 79.2772C38.4599 80.9575 38.2542 82.1476 37.8508 82.8474C37.4473 83.5513 36.8184 84.0877 35.96 84.4606C35.1017 84.8335 33.2821 85.0179 30.5053 85.0179V94.9279H32.5701C35.9719 94.9279 38.4678 94.6807 40.054 94.182C42.4194 93.4404 44.2113 92.4305 45.4336 91.1483C46.6519 89.8703 47.4905 88.169 47.9453 86.0487C48.4002 83.9284 48.6297 80.1991 48.6297 74.8607C48.6297 71.6132 48.7325 69.3253 48.9421 68.0054C49.2269 66.2455 49.7135 64.7789 50.4017 63.6098C51.09 62.4365 51.9167 61.6068 52.8779 61.1082C53.8391 60.6138 55.2671 60.3121 57.1657 60.2031V50.2931C54.7726 50.1548 52.9926 49.6101 51.8257 48.6589Z" fill="#FF4500"/>
</g>
<mask id="mask2_43_2" style="mask-type:luminance" maskUnits="userSpaceOnUse" x="65" y="3" width="7" height="6">
<path d="M65.4091 3.0589H71.3899V8.42251H65.4091V3.0589Z" fill="white"/>
</mask>
<g mask="url(#mask2_43_2)">
<path d="M71.0537 8.00869H66.3901V3.07251H71.0537V8.00869Z" fill="#FF4500"/>
</g>
<path d="M47.6803 14.0962H38.9781V4.88171H47.6803V14.0962Z" fill="#FF4500"/>
</svg>
